<?xml version="1.0" encoding="utf-8"?>
<!-- Generator: Adobe Illustrator 16.0.2, SVG Export Plug-In . SVG Version: 6.00 Build 0)  -->
<!DOCTYPE svg PUBLIC "-//W3C//DTD SVG 1.1//EN" "http://www.w3.org/Graphics/SVG/1.1/DTD/svg11.dtd">
<svg version="1.1" id="Google_x2B__1_" xmlns="http://www.w3.org/2000/svg" xmlns:xlink="http://www.w3.org/1999/xlink" x="0px"
	 y="0px" width="17.884px" height="14.996px" viewBox="0.122 0.01 17.884 14.996" enable-background="new 0.122 0.01 17.884 14.996"
	 xml:space="preserve">
<g id="Google_x2B_">
	<g>
		<path fill="#60266B" d="M15,2.968V0.026h-0.998v2.941h-2.975v0.994h2.975v3.036H15V3.962h3.006V2.968H15z M9.792,0.01H5.19
			c-2.063,0-4.005,1.637-4.005,3.415c0,1.816,1.406,3.334,3.505,3.334c0.146,0,0.287,0.022,0.426,0.013
			C4.981,7.027,4.884,7.329,4.884,7.628c0,0.505,0.276,0.921,0.626,1.255c-0.264,0-0.519,0.012-0.798,0.012
			c-2.555,0-4.59,1.6-4.59,3.256c0,1.634,2.224,2.855,4.78,2.855c2.913,0,4.488-1.822,4.488-3.456c0-1.308-0.359-2.093-1.576-2.937
			c-0.415-0.289-1.21-0.992-1.21-1.406c0-0.483,0.141-0.723,0.883-1.292c0.761-0.584,1.351-1.337,1.351-2.293
			c0-1.136-0.567-2.006-1.535-2.541h1.459L9.792,0.01z M8.185,11.27c0.036,0.15,0.057,0.308,0.057,0.465
			c0,1.32-0.866,2.218-3.349,2.218c-1.766,0-3.042-0.966-3.042-2.283c0-1.293,1.583-2.369,3.349-2.351
			c0.412,0.004,0.796,0.068,1.145,0.181C7.303,10.152,7.99,10.521,8.185,11.27z M5.357,6.349C4.171,6.314,3.044,5.047,2.84,3.518
			c-0.205-1.53,0.59-2.7,1.775-2.665c1.186,0.035,2.363,1.262,2.568,2.79C7.388,5.173,6.542,6.384,5.357,6.349z"/>
	</g>
</g>
</svg>
