<?xml version="1.0" encoding="utf-8"?>
<!-- Generator: Adobe Illustrator 16.0.2, SVG Export Plug-In . SVG Version: 6.00 Build 0)  -->
<!DOCTYPE svg PUBLIC "-//W3C//DTD SVG 1.1//EN" "http://www.w3.org/Graphics/SVG/1.1/DTD/svg11.dtd">
<svg version="1.1" id="in" xmlns="http://www.w3.org/2000/svg" xmlns:xlink="http://www.w3.org/1999/xlink" x="0px" y="0px"
	 width="15px" height="14px" viewBox="0 0 15 14" enable-background="new 0 0 15 14" xml:space="preserve">
<g>
	<path fill="#60266B" d="M3.84,2.087c0,0.492-0.159,0.879-0.477,1.161C3.045,3.53,2.67,3.671,2.238,3.671
		c-0.432,0-0.807-0.141-1.125-0.423C0.795,2.966,0.636,2.579,0.636,2.087c0-0.492,0.159-0.879,0.477-1.161
		c0.318-0.282,0.693-0.423,1.125-0.423c0.432,0,0.807,0.141,1.125,0.423C3.681,1.208,3.84,1.595,3.84,2.087z M3.588,14.291H0.906
		V4.823h2.682V14.291z"/>
	<path fill="#60266B" d="M6.108,5.147c0.456-0.132,1.044-0.255,1.764-0.369c0.72-0.114,1.476-0.171,2.268-0.171
		c0.804,0,1.473,0.105,2.007,0.315c0.534,0.21,0.957,0.507,1.27,0.891c0.312,0.384,0.533,0.84,0.666,1.368
		c0.132,0.528,0.197,1.116,0.197,1.765v5.346h-2.682V9.269c0-0.863-0.114-1.476-0.342-1.836c-0.229-0.359-0.654-0.54-1.278-0.54
		c-0.191,0-0.396,0.009-0.611,0.027C9.149,6.938,8.958,6.959,8.79,6.983v7.308H6.108V5.147z"/>
</g>
</svg>
