<?xml version="1.0" encoding="utf-8"?>
<!-- Generator: Adobe Illustrator 16.0.2, SVG Export Plug-In . SVG Version: 6.00 Build 0)  -->
<!DOCTYPE svg PUBLIC "-//W3C//DTD SVG 1.1//EN" "http://www.w3.org/Graphics/SVG/1.1/DTD/svg11.dtd">
<svg version="1.1" id="Layer_1" xmlns="http://www.w3.org/2000/svg" xmlns:xlink="http://www.w3.org/1999/xlink" x="0px" y="0px"
	 width="17.999px" height="14.628px" viewBox="603.001 388.686 17.999 14.628"
	 enable-background="new 603.001 388.686 17.999 14.628" xml:space="preserve">
<path fill="#60266B" d="M621,390.417c-0.662,0.294-1.373,0.492-2.12,0.582c0.762-0.457,1.349-1.181,1.623-2.043
	c-0.713,0.423-1.504,0.73-2.345,0.896c-0.674-0.718-1.634-1.166-2.695-1.166c-2.04,0-3.693,1.653-3.693,3.693
	c0,0.289,0.033,0.571,0.097,0.841c-3.069-0.154-5.79-1.624-7.612-3.858c-0.318,0.545-0.5,1.18-0.5,1.856
	c0,1.281,0.652,2.412,1.644,3.074c-0.605-0.019-1.176-0.185-1.674-0.462c0,0.016,0,0.031,0,0.046c0,1.79,1.273,3.282,2.962,3.622
	c-0.31,0.084-0.636,0.129-0.973,0.129c-0.238,0-0.469-0.021-0.695-0.064c0.471,1.467,1.833,2.533,3.45,2.563
	c-1.264,0.99-2.855,1.581-4.586,1.581c-0.298,0-0.592-0.018-0.881-0.053c1.634,1.049,3.576,1.66,5.661,1.66
	c6.793,0,10.507-5.629,10.507-10.507c0-0.16-0.003-0.32-0.01-0.478C619.879,391.809,620.505,391.158,621,390.417z"/>
</svg>
