<?xml version="1.0" encoding="utf-8"?>
<!-- Generator: Adobe Illustrator 16.0.2, SVG Export Plug-In . SVG Version: 6.00 Build 0)  -->
<!DOCTYPE svg PUBLIC "-//W3C//DTD SVG 1.1//EN" "http://www.w3.org/Graphics/SVG/1.1/DTD/svg11.dtd">
<svg version="1.1" id="Layer_1" xmlns="http://www.w3.org/2000/svg" xmlns:xlink="http://www.w3.org/1999/xlink" x="0px" y="0px"
	 width="104.604px" height="100.373px" viewBox="2.698 4.813 104.604 100.373" enable-background="new 2.698 4.813 104.604 100.373"
	 xml:space="preserve">
<path fill="none" stroke="#000000" stroke-width="3" stroke-miterlimit="10" d="M55.003,6.313c15.195,0,25.399,4.961,25.399,9.594
	c0,5.649-13.383,9.594-25.399,9.594c-12.015,0-25.403-3.943-25.403-9.594C29.598,11.271,39.806,6.313,55.003,6.313z"/>
<path fill="none" stroke="#000000" stroke-width="3" stroke-miterlimit="10" d="M80.402,15.905v11.17
	c0,5.65-13.383,9.595-25.399,9.595c-12.015,0-25.403-3.942-25.403-9.595V16.188"/>
<path fill="none" stroke="#000000" stroke-width="3" stroke-miterlimit="10" d="M80.402,27.075v11.171
	c0,5.649-13.383,9.594-25.399,9.594c-12.015,0-25.403-3.942-25.403-9.594V27.358"/>
<path fill="none" stroke="#000000" stroke-width="3" stroke-miterlimit="10" d="M80.402,38v11.17c0,5.651-13.383,9.596-25.399,9.596
	c-12.015,0-25.403-3.942-25.403-9.596V38.284"/>
<path fill="none" stroke="#000000" stroke-width="3" stroke-miterlimit="10" d="M55.003,69.937c-12.015,0-25.403-3.943-25.403-9.597
	V49.455"/>
<line fill="none" stroke="#000000" stroke-width="3" stroke-miterlimit="10" x1="80.402" y1="49.17" x2="80.402" y2="61.34"/>
<line fill="none" stroke="#000000" stroke-width="3" stroke-miterlimit="10" x1="29.599" y1="72.266" x2="29.599" y2="60.379"/>
<path fill="none" stroke="#000000" stroke-width="3" stroke-miterlimit="10" d="M55.003,80.86"/>
<path fill="none" stroke="#000000" stroke-width="3" stroke-miterlimit="10" d="M80.402,71.266"/>
<path fill="none" stroke="#000000" stroke-width="3" stroke-miterlimit="10" d="M80.402,60.096"/>
<path fill="none" stroke="#000000" stroke-width="3" stroke-miterlimit="10" d="M29.602,73.328C44.796,73.328,55,78.289,55,82.921
	c0,5.65-13.383,9.595-25.399,9.595c-12.015,0-25.403-3.942-25.403-9.595C4.196,78.284,14.404,73.328,29.602,73.328z"/>
<path fill="none" stroke="#000000" stroke-width="3" stroke-miterlimit="10" d="M55.001,82.922v11.17
	c0,5.651-13.383,9.595-25.399,9.595c-12.015,0-25.403-3.943-25.403-9.595V83.206"/>
<path fill="none" stroke="#000000" stroke-width="3" stroke-miterlimit="10" d="M80.404,62.28c15.195,0,25.398,4.961,25.398,9.593
	c0,5.651-13.383,9.595-25.398,9.595s-25.403-3.943-25.403-9.595C55,67.237,65.207,62.28,80.404,62.28z"/>
<path fill="none" stroke="#000000" stroke-width="3" stroke-miterlimit="10" d="M105.803,71.874v11.17
	c0,5.65-13.383,9.595-25.398,9.595s-25.403-3.942-25.403-9.595V72.157"/>
<path fill="none" stroke="#000000" stroke-width="3" stroke-miterlimit="10" d="M105.803,82.799v11.17
	c0,5.651-13.383,9.595-25.398,9.595s-25.403-3.942-25.403-9.595V83.083"/>
</svg>
