<?xml version="1.0" encoding="utf-8"?>
<!-- Generator: Adobe Illustrator 16.0.2, SVG Export Plug-In . SVG Version: 6.00 Build 0)  -->
<!DOCTYPE svg PUBLIC "-//W3C//DTD SVG 1.1//EN" "http://www.w3.org/Graphics/SVG/1.1/DTD/svg11.dtd">
<svg version="1.1" id="Layer_1" xmlns="http://www.w3.org/2000/svg" xmlns:xlink="http://www.w3.org/1999/xlink" x="0px" y="0px"
	 width="107px" height="104.719px" viewBox="2 2.281 107 104.719" enable-background="new 2 2.281 107 104.719"
	 xml:space="preserve">
<path fill="none" stroke="#000000" stroke-width="3" stroke-miterlimit="10" d="M55,105.5h27.5c7.813,0,7.932-6.999,7.932-6.999
	L92,39.5H55H18.5l1.569,59.001c0,0,0.118,6.999,7.931,6.999H55z"/>
<path fill="none" stroke="#000000" stroke-width="3" stroke-miterlimit="10" d="M92,48.5h6.293c5.085,0,9.207,4.122,9.207,9.207
	v0.586c0,5.085-4.122,9.207-9.207,9.207H91"/>
<path fill="none" stroke="#000000" stroke-width="3" stroke-miterlimit="10" d="M19,49.5h-5.793c-5.085,0-9.707,4.122-9.707,9.207
	v0.586c0,5.085,4.622,9.207,9.707,9.207H20"/>
<g>
	<path fill="none" stroke="#000000" stroke-width="3" stroke-linecap="round" stroke-miterlimit="10" d="M60.609,9.114
		c1.824,1.824,2.83,4.249,2.83,6.829c0,2.458-0.242,4.208-2.326,6.308L59.85,23.51c-1.015,1.016-1.582,2.384-1.582,3.838
		c0,1.385,0.521,2.706,1.469,3.719"/>
	<path fill="none" stroke="#000000" stroke-width="3" stroke-linecap="round" stroke-miterlimit="10" d="M48.901,3.781
		c1.824,1.824,2.829,4.249,2.829,6.829c0,2.458-0.242,4.208-2.326,6.308l-1.263,1.259c-1.015,1.016-1.582,2.384-1.582,3.838
		c0,1.385,0.521,2.706,1.468,3.719"/>
</g>
<line fill="none" stroke="#000000" stroke-width="3" stroke-linecap="round" stroke-miterlimit="10" x1="12" y1="39.5" x2="27" y2="39.5"/>
<line fill="none" stroke="#000000" stroke-width="3" stroke-linecap="round" stroke-miterlimit="10" x1="83" y1="39.5" x2="98" y2="39.5"/>
</svg>
