<?xml version="1.0" encoding="utf-8"?>
<!-- Generator: Adobe Illustrator 16.0.2, SVG Export Plug-In . SVG Version: 6.00 Build 0)  -->
<!DOCTYPE svg PUBLIC "-//W3C//DTD SVG 1.1//EN" "http://www.w3.org/Graphics/SVG/1.1/DTD/svg11.dtd">
<svg version="1.1" id="Layer_1" xmlns="http://www.w3.org/2000/svg" xmlns:xlink="http://www.w3.org/1999/xlink" x="0px" y="0px"
	 width="97.002px" height="97.108px" viewBox="6.5 6.446 97.002 97.108" enable-background="new 6.5 6.446 97.002 97.108"
	 xml:space="preserve">
<circle fill="none" stroke="#000000" stroke-width="3" stroke-miterlimit="10" cx="55" cy="55.053" r="4.292"/>
<circle fill="none" stroke="#000000" stroke-width="3" stroke-miterlimit="10" cx="55.038" cy="55.053" r="11.334"/>
<path fill="none" stroke="#000000" stroke-width="3" stroke-miterlimit="10" d="M48.895,44.271l-1.211-5.933l-3.497-17.133
	c-0.147-0.727-0.224-1.473-0.224-2.22c0-6.084,4.953-11.039,11.037-11.039c6.086,0,11.04,4.954,11.04,11.039
	c0,0.747-0.074,1.493-0.224,2.218l-3.497,17.134l-1.201,5.886"/>
<path fill="none" stroke="#000000" stroke-width="3" stroke-miterlimit="10" d="M61.106,65.729l1.211,5.934l3.497,17.133
	c0.146,0.727,0.225,1.473,0.225,2.221c0,6.084-4.953,11.038-11.038,11.038c-6.086,0-11.04-4.954-11.04-11.038
	c0-0.748,0.075-1.494,0.224-2.219l3.497-17.135l1.202-5.885"/>
<path fill="none" stroke="#000000" stroke-width="3" stroke-miterlimit="10" d="M44.325,61.158l-5.933,1.211l-17.133,3.498
	c-0.727,0.146-1.473,0.224-2.221,0.224C12.954,66.091,8,61.138,8,55.054c0-6.086,4.954-11.04,11.038-11.04
	c0.748,0,1.494,0.075,2.219,0.225l17.135,3.496l5.885,1.202"/>
<path fill="none" stroke="#000000" stroke-width="3" stroke-miterlimit="10" d="M65.676,48.946l5.934-1.211l17.133-3.497
	c0.728-0.147,1.473-0.224,2.221-0.224c6.084,0,11.039,4.953,11.039,11.037c0,6.086-4.955,11.04-11.039,11.04
	c-0.748,0-1.493-0.075-2.219-0.226l-17.135-3.496l-5.885-1.201"/>
<path fill="none" stroke="#000000" stroke-width="3" stroke-linecap="round" stroke-miterlimit="10" d="M36.108,23.003
	c-6.226,1.979-11.141,6.897-13.116,13.125"/>
<path fill="none" stroke="#000000" stroke-width="3" stroke-linecap="round" stroke-miterlimit="10" d="M87.084,36.123
	c-1.979-6.226-6.896-11.141-13.125-13.116"/>
<path fill="none" stroke="#000000" stroke-width="3" stroke-linecap="round" stroke-miterlimit="10" d="M36.108,87.549
	c-6.226-1.979-11.141-6.896-13.116-13.125"/>
<path fill="none" stroke="#000000" stroke-width="3" stroke-linecap="round" stroke-miterlimit="10" d="M87.084,74.429
	c-1.979,6.226-6.896,11.142-13.125,13.116"/>
</svg>
