<?xml version="1.0" encoding="utf-8"?>
<!-- Generator: Adobe Illustrator 15.0.0, SVG Export Plug-In . SVG Version: 6.00 Build 0)  -->
<!DOCTYPE svg PUBLIC "-//W3C//DTD SVG 1.1//EN" "http://www.w3.org/Graphics/SVG/1.1/DTD/svg11.dtd">
<svg version="1.1" id="Layer_1" xmlns="http://www.w3.org/2000/svg" xmlns:xlink="http://www.w3.org/1999/xlink" x="0px" y="0px"
	 width="49px" height="49px" viewBox="0 0 512 512" enable-background="new 0 0 512 512" xml:space="preserve">
<path fill="#FFFFFF" stroke="#37404D" stroke-miterlimit="10" d="M484.748,96.359H27.439h-3.966h-9.625h-6.63v318.585H505V96.359
	h-17.218H484.748z M464.837,116.271L272.529,308.578c-8.77,8.77-24.073,8.77-32.842,0L47.35,116.271H464.837z M27.128,124.203
	l129.287,129.268L27.128,382.759V124.203z M43.014,395.029l127.489-127.471l55.106,55.098c8.138,8.148,18.978,12.64,30.499,12.64
	s22.361-4.491,30.5-12.64l55.105-55.106l127.479,127.479H43.014L43.014,395.029z M485.089,382.77L355.801,253.472l129.287-129.297
	L485.089,382.77L485.089,382.77z"/>
</svg>
