<?xml version="1.0" encoding="utf-8"?>
<!-- Generator: Adobe Illustrator 16.0.2, SVG Export Plug-In . SVG Version: 6.00 Build 0)  -->
<!DOCTYPE svg PUBLIC "-//W3C//DTD SVG 1.1//EN" "http://www.w3.org/Graphics/SVG/1.1/DTD/svg11.dtd">
<svg version="1.1" id="Layer_1" xmlns="http://www.w3.org/2000/svg" xmlns:xlink="http://www.w3.org/1999/xlink" x="0px" y="0px"
	 width="47.661px" height="51.343px" viewBox="31.233 19.087 47.661 51.343" enable-background="new 31.233 19.087 47.661 51.343"
	 xml:space="preserve">
<path d="M78.889,36.519c-0.002-0.067-0.021-0.13-0.04-0.196c-0.013-0.048-0.015-0.099-0.034-0.143
	c-0.02-0.044-0.057-0.082-0.084-0.123c-0.037-0.057-0.068-0.115-0.117-0.161c-0.008-0.005-0.011-0.014-0.015-0.019l-8.914-8.042
	c-0.034-0.031-0.074-0.042-0.111-0.066c-0.056-0.037-0.106-0.076-0.169-0.1c-0.063-0.023-0.125-0.029-0.189-0.039
	c-0.043-0.007-0.084-0.026-0.129-0.026h-4.457v-7.621c0-0.108-0.026-0.211-0.063-0.31c-0.01-0.023-0.018-0.045-0.027-0.067
	c-0.043-0.092-0.096-0.176-0.168-0.248c-0.01-0.01-0.021-0.017-0.033-0.027c-0.041-0.039-0.082-0.078-0.133-0.108
	c-0.025-0.017-0.057-0.026-0.086-0.04c-0.023-0.011-0.046-0.022-0.07-0.032c-0.097-0.037-0.197-0.059-0.299-0.06
	c-0.007,0-0.012-0.004-0.019-0.004H32.129c-0.494,0-0.896,0.401-0.896,0.896v41.033c0,0.495,0.401,0.896,0.896,0.896H45.5v7.622
	c0,0.495,0.4,0.896,0.896,0.896h31.603c0.496,0,0.896-0.399,0.896-0.896V36.542C78.894,36.534,78.889,36.527,78.889,36.519z
	 M69.981,30.516l5.688,5.131h-5.688V30.516z M50.25,27.605l12.588-6.184v6.184H50.25z M33.026,60.122V20.88h26.854l-13.879,6.817
	c-0.041,0.02-0.067,0.054-0.104,0.079c-0.054,0.038-0.108,0.071-0.154,0.118c-0.036,0.042-0.063,0.093-0.095,0.142
	c-0.03,0.048-0.063,0.093-0.085,0.147c-0.022,0.062-0.029,0.125-0.037,0.189C45.52,28.415,45.5,28.455,45.5,28.5v31.622H33.026z
	 M77.104,68.639H47.291V29.396H68.19v7.146c0,0.495,0.399,0.896,0.896,0.896h8.019L77.104,68.639L77.104,68.639z"/>
</svg>
