<?xml version="1.0" encoding="utf-8"?>
<!-- Generator: Adobe Illustrator 16.0.2, SVG Export Plug-In . SVG Version: 6.00 Build 0)  -->
<!DOCTYPE svg PUBLIC "-//W3C//DTD SVG 1.1//EN" "http://www.w3.org/Graphics/SVG/1.1/DTD/svg11.dtd">
<svg version="1.1" id="Layer_1" xmlns="http://www.w3.org/2000/svg" xmlns:xlink="http://www.w3.org/1999/xlink" x="0px" y="0px"
	 width="59.862px" height="49.957px" viewBox="22.772 2.436 79.862 49.957" enable-background="new 22.772 2.436 79.862 49.957"
	 xml:space="preserve">
<path d="M102.311,28.188c-0.057-0.084-2.381-3.541-6.879-7.592l3.168-3.427c0.371-0.401,0.346-1.028-0.056-1.4
	s-1.028-0.35-1.401,0.056l-3.209,3.474c-3.176-2.66-7.238-5.44-12.172-7.618l1.686-4.308c0.197-0.509-0.053-1.084-0.563-1.284
	c-0.51-0.201-1.086,0.05-1.284,0.563l-1.668,4.265C75.26,9.083,69.869,7.834,63.791,7.698V3.427c0-0.547-0.443-0.991-0.991-0.991
	s-0.989,0.442-0.989,0.991v4.267c-6.076,0.114-11.472,1.358-16.149,3.205l-1.659-4.246c-0.2-0.513-0.775-0.765-1.285-0.563
	c-0.51,0.199-0.762,0.774-0.562,1.284l1.678,4.291c-4.906,2.178-8.957,4.972-12.143,7.659l-3.232-3.499
	c-0.375-0.406-1-0.428-1.401-0.056c-0.402,0.372-0.426,0.999-0.055,1.4l3.196,3.459c-4.645,4.214-7.052,7.853-7.108,7.939
	l-0.318,0.492l0.277,0.516c0.123,0.228,12.583,22.817,39.544,22.817c26.959,0,39.636-22.958,39.763-23.189l0.278-0.521
	L102.311,28.188z M62.594,50.411c-23.503,0-35.493-17.958-37.496-21.258c2.214-3.079,15.089-19.498,37.605-19.498
	c22.492,0,35.365,16.084,37.602,19.13C98.277,32.135,86.139,50.411,62.594,50.411z"/>
<path d="M62.8,16.751c7.315,0,13.269,5.952,13.269,13.267S70.115,43.285,62.8,43.285s-13.267-5.952-13.267-13.267
	S55.484,16.751,62.8,16.751 M62.8,14.965c-8.313,0-15.054,6.74-15.054,15.053s6.74,15.053,15.054,15.053s15.054-6.74,15.054-15.053
	S71.113,14.965,62.8,14.965L62.8,14.965z"/>
<path d="M62.8,26.764c1.796,0,3.257,1.459,3.257,3.254s-1.461,3.254-3.257,3.254c-1.795,0-3.254-1.459-3.254-3.254
	S61.005,26.764,62.8,26.764 M62.8,24.978c-2.782,0-5.04,2.256-5.04,5.04c0,2.783,2.258,5.04,5.04,5.04
	c2.784,0,5.042-2.257,5.042-5.04C67.842,27.234,65.584,24.978,62.8,24.978L62.8,24.978z"/>
</svg>
