<?xml version="1.0" encoding="utf-8"?>
<!-- Generator: Adobe Illustrator 15.0.0, SVG Export Plug-In . SVG Version: 6.00 Build 0)  -->
<!DOCTYPE svg PUBLIC "-//W3C//DTD SVG 1.1//EN" "http://www.w3.org/Graphics/SVG/1.1/DTD/svg11.dtd">
<svg version="1.1" id="Layer_1" xmlns="http://www.w3.org/2000/svg" xmlns:xlink="http://www.w3.org/1999/xlink" x="0px" y="0px"
	 width="11px" height="16px" viewBox="0 0 11 16" enable-background="new 0 0 11 16" xml:space="preserve">
<g>
	<path fill="#60266B" d="M5.5,1.5c2.206,0,4,1.794,4,4s-1.794,4-4,4c-2.206,0-4-1.794-4-4S3.294,1.5,5.5,1.5 M5.5,0
		C2.462,0,0,2.462,0,5.5S2.462,11,5.5,11C8.537,11,11,8.538,11,5.5S8.537,0,5.5,0L5.5,0z"/>
</g>
<path fill="#60266B" d="M4,14.5C4,15.328,4.671,16,5.5,16C6.328,16,7,15.328,7,14.5V14v-4H4v4"/>
</svg>
